<?xml version="1.0" standalone="no"?><!DOCTYPE svg PUBLIC "-//W3C//DTD SVG 1.1//EN" "http://www.w3.org/Graphics/SVG/1.1/DTD/svg11.dtd"><svg t="1743995479175" class="icon" viewBox="0 0 1024 1024" version="1.1" xmlns="http://www.w3.org/2000/svg" p-id="10453" xmlns:xlink="http://www.w3.org/1999/xlink" width="200" height="200"><path d="M83.248881 697.885167c7.927361 0 14.220926 6.328082 14.220927 14.301466v32.100634c0.034517 5.15451 2.784356 9.894819 7.225519 12.426052l400.072854 232.528252a14.036837 14.036837 0 0 0 14.220926 0L777.773146 839.012903c4.487185-2.577255 9.975358-2.577255 14.451039 0 9.561157 5.614735 9.561157 19.214358 0 24.610486L519.219219 1022.067059a14.036837 14.036837 0 0 1-14.220926 0L76.253474 773.361928A14.39351 14.39351 0 0 1 69.027955 760.935876V712.198138c0-7.973383 6.293565-14.301465 14.220926-14.301465z m753.50199-85.325557v92.125369L511.9937 892.916656l-132.889724-76.661837-191.878954-111.109616v-91.883752l191.878954 111.109616L511.9937 800.791287l324.768677-188.231677zM653.478109 87.984618a14.186409 14.186409 0 0 1 14.266949-0.023012l280.000373 162.677732c4.429657 2.577255 7.225519 7.271542 7.225519 12.426052v497.870486c0 5.15451-2.56575 9.848797-6.995407 12.426052l-56.181863 32.58387a14.47405 14.47405 0 0 1-14.462544 0c-9.319539-5.637746-9.089427-19.455976 0.230112-24.852105l41.972442-24.368868c4.429657-2.588761 7.225519-7.271542 7.22552-12.426052V279.702493c0-5.15451-2.795862-9.837291-7.22552-12.426052L653.512626 112.81371a14.347488 14.347488 0 0 1-0.034517-24.829092z m183.284268 382.296696v91.883751L511.9937 749.223171l-132.889724-76.650332-58.747612-33.757442-133.119836-76.650332v-91.883751l133.119836 76.650332 58.747612 33.745936 132.889724 76.650332 324.768677-187.0466zM505.009798 1.934207a14.036837 14.036837 0 0 1 14.220926 0l49.888298 28.833043a14.347488 14.347488 0 0 1 0.034517 24.829093 14.186409 14.186409 0 0 1-14.255443 0.023011l-35.667372-20.629547a14.036837 14.036837 0 0 0-14.220926 0L104.695327 267.276441a14.39351 14.39351 0 0 0-7.225519 12.426052v316.208508c0 7.961878-6.293565 14.28996-14.220927 14.28996S69.027955 603.654272 69.027955 595.680889v-332.627005c0-5.143005 2.795862-9.837291 7.225519-12.414546z m194.214592 246.357988l3.957927 2.347143 133.58006 77.352174v91.883752L511.9937 607.163481v-0.230112L379.103976 530.524655l-3.957927-2.335638v-91.895257h0.230112L699.189873 248.292195zM511.9937 139.759834l132.429499 76.89195 3.957928 2.105526-324.296948 188.231677v91.883752l-3.727815-2.347143-133.119836-76.650332v-91.883752L511.9937 139.759834z" fill="#005EBA" p-id="10454"></path></svg>