<?xml version="1.0" standalone="no"?><!DOCTYPE svg PUBLIC "-//W3C//DTD SVG 1.1//EN" "http://www.w3.org/Graphics/SVG/1.1/DTD/svg11.dtd"><svg t="1743994715209" class="icon" viewBox="0 0 1024 1024" version="1.1" xmlns="http://www.w3.org/2000/svg" p-id="5224" xmlns:xlink="http://www.w3.org/1999/xlink" width="200" height="200"><path d="M144.512 834.816v-153.173333A405.333333 405.333333 0 0 0 85.333333 865.066667c3.626667 32 26.88 58.88 59.178667 68.522666 23.722667 3.328 47.658667 5.034667 71.68 5.034667-43.733333-17.834667-71.978667-58.709333-71.68-103.850667z m734.677333-127.957333v128c0.170667 41.856-24.234667 80.384-63.36 99.84h65.706667c38.229333-11.178667 62.122667-47.189333 56.234667-84.693334a578.901333 578.901333 0 0 0-58.581334-143.146666zM343.424 512.128h346.325333l82.858667-112.213333c31.701333-47.445333 21.589333-109.781333-23.68-145.92l-94.72-112.298667c-80.426667-75.136-209.621333-75.136-290.048 0L265.898667 253.952c-40.448 39.509333-45.866667 100.565333-13.056 145.92l90.581333 112.256z m8.32-180.736a64.426667 64.426667 0 0 1 0-10.069333c7.765333-21.418667 29.354667-35.541333 53.248-34.816l214.912 5.077333c24.32 0.682667 45.226667 16.426667 51.498667 38.698667a26.624 26.624 0 0 1 0 6.741333 10.112 10.112 0 0 1 0 4.48 32.469333 32.469333 0 0 1 0 10.666667 6.912 6.912 0 0 1 0 3.413333c-3.84 16.341333-11.562667 31.658667-22.528 44.842667-27.733333 51.498667-77.610667 89.130667-136.746667 103.253333-60.714667-15.402667-111.786667-54.272-140.885333-107.178667a98.858667 98.858667 0 0 1-19.541334-65.109333z m485.973333 312.064c0-52.053333-44.501333-94.293333-99.413333-94.293333h-452.266667c-54.954667 0-99.456 42.24-99.456 94.293333v200.192c0 52.053333 44.501333 94.293333 99.413334 94.293333h452.266666c26.410667 0 51.712-9.941333 70.357334-27.605333 18.645333-17.706667 29.098667-41.685333 29.098666-66.688v-200.192z" fill="#5B5177" p-id="5225"></path></svg>